<svg width="101" height="108" viewBox="0 0 101 108" fill="none" xmlns="http://www.w3.org/2000/svg">
<g style="mix-blend-mode:plus-darker">
<path d="M50.5953 47.9495L54.1146 45.6871L54.2072 28.1869L62.9722 22.4351L62.6282 17.9732L58.7617 17.8475L54.1113 20.864L54.2039 17.5961L66.1441 9.86641L65.7671 5.90728L61.7749 5.78159L54.108 10.9645L54.2006 7.66689C54.2006 7.66689 59.0097 6.38026 59.0097 0H42.1975C42.1975 0 41.8833 5.68898 46.9405 7.66689L47.0662 10.8719L39.4324 5.75182L35.4104 5.90728L35.0962 9.89948L46.9736 17.5664L47.0993 20.8342L42.4819 17.788L38.5559 18.0096L38.1788 22.4384L46.9438 28.1274L47.1026 45.6607L50.592 47.9528L50.5953 47.9495Z" fill="#7FC117"/>
<path d="M50.5953 59.8267L54.1146 62.0891L54.2072 79.5893L62.9722 85.3378L62.6282 89.7997L58.7617 89.9254L54.1113 86.9089L54.2039 90.1768L66.1441 97.9065L65.7671 101.866L61.7749 101.991L54.108 96.8051L54.2006 100.106C54.2006 100.106 59.0097 101.393 59.0097 107.773H42.1975C42.1975 107.773 41.8833 102.084 46.9405 100.106L47.0662 96.901L39.4324 102.021L35.4104 101.862L35.0962 97.8701L46.9736 90.2032L47.0993 86.9354L42.4819 89.9816L38.5559 89.76L38.1788 85.3312L46.9438 79.6422L47.1026 62.1089L50.592 59.8135L50.5953 59.8267Z" fill="#7FC117"/>
<path d="M55.9998 34.0283L55.8113 44.2089L64.6722 38.7118L64.5465 28.9082L55.9998 34.0283Z" fill="#7FC117"/>
<path d="M45.5677 44.242L45.409 34.0614L36.9251 28.9082L36.7366 38.6787L45.5677 44.242Z" fill="#7FC117"/>
<path d="M56.0826 73.8115L55.894 63.6309L64.755 69.128L64.6293 78.9316L56.0826 73.8115Z" fill="#7FC117"/>
<path d="M45.6503 63.5977L45.4949 73.7783L37.011 78.9314L36.8225 69.161L45.6503 63.5977Z" fill="#7FC117"/>
<path d="M45.409 50.7777L45.4388 46.6002L30.7665 36.8926L30.8293 26.4904L26.9 24.3537L24.6376 27.5587L24.6674 33.0558L21.9354 31.1408L22.0313 17.001L18.4823 15.1157L16.2199 18.3836L16.3158 27.6513L13.6433 25.766C13.6433 25.766 15.1218 21.1785 9.8099 17.6592L0.634766 31.7031C0.634766 31.7031 5.18926 35.1925 9.68421 31.8618L12.4493 33.5917L3.9357 37.2035L1.92471 40.5971L5.0338 43.0777L17.9465 37.2961L20.7744 38.93L15.7469 41.2222L13.769 44.5826L17.3511 47.2551L26.8074 42.9818L41.7013 52.4711L45.409 50.7744V50.7777Z" fill="#7FC117"/>
<path d="M45.409 56.7772L45.4388 60.958L30.7665 70.6656L30.8293 81.0678L26.9 83.2045L24.6376 79.9995L24.6674 74.5024L21.9354 76.4174L22.0313 90.5572L18.4823 92.4425L16.2199 89.1746L16.3158 79.9069L13.6433 81.7922C13.6433 81.7922 15.1218 86.3798 9.8099 89.899L0.634766 75.8518C0.634766 75.8518 5.18926 72.3624 9.68421 75.6931L12.4493 73.9665L3.9357 70.3514L1.92471 66.9579L5.0338 64.4739L17.9465 70.2555L20.7744 68.6215L15.7469 66.3261L13.769 62.9623L17.3511 60.2931L26.8074 64.5665L41.7013 55.0771L45.409 56.7739V56.7772Z" fill="#7FC117"/>
<path d="M55.4639 50.7777L55.4341 46.6002L70.1064 36.8926L70.0435 26.4904L73.9696 24.3537L76.2319 27.5587L76.2022 33.0558L78.9342 31.1408L78.8383 17.001L82.3873 15.1157L84.6496 18.3836L84.5537 27.6513L87.2262 25.766C87.2262 25.766 85.7477 21.1785 91.0597 17.6592L100.235 31.7031C100.235 31.7031 95.6803 35.1925 91.1853 31.8618L88.4202 33.5917L96.9372 37.2035L98.9481 40.5971L95.8357 43.0777L82.9231 37.2961L80.0951 38.93L85.1226 41.2222L87.1005 44.5826L83.5184 47.2551L74.0622 42.9818L59.1683 52.4711L55.4605 50.7744L55.4639 50.7777Z" fill="#7FC117"/>
<path d="M55.4639 56.7773L55.4341 60.9581L70.1064 70.6657L70.0435 81.068L73.9696 83.2046L76.2319 79.9996L76.2022 74.5025L78.9342 76.4175L78.8383 90.5573L82.3873 92.4426L84.6496 89.1747L84.5537 79.907L87.2262 81.7923C87.2262 81.7923 85.7477 86.3799 91.0597 89.8991L100.235 75.8553C100.235 75.8553 95.6803 72.3658 91.1853 75.6965L88.4202 73.97L96.9372 70.3548L98.9481 66.9613L95.8357 64.4773L82.9231 70.2589L80.0951 68.625L85.1226 66.3295L87.1005 62.9658L83.5184 60.2966L74.0622 64.5699L59.1683 55.0806L55.4605 56.7773H55.4639Z" fill="#7FC117"/>
<path d="M40.6329 53.8569L31.4909 48.9551L23.0996 54.0123L31.772 58.8215L40.6329 53.8569Z" fill="#7FC117"/>
<path d="M60.7229 53.8569L69.8683 48.9551L78.2562 54.0123L69.5838 58.8215L60.7229 53.8569Z" fill="#7FC117"/>
<path d="M47.1057 52.0976L50.6249 49.9609L54.1144 52.0976L54.1442 55.9608L50.658 57.7833L47.1388 55.9939L47.1057 52.0976Z" fill="#7FC117"/>
</g>
</svg>
