<svg width="170" height="21" viewBox="0 0 170 21" fill="none" xmlns="http://www.w3.org/2000/svg">
<g clip-path="url(#clip0_1275_853)">
<path d="M4.47812 18.4963C4.47812 18.4963 4.65538 19.877 3.54982 20.008C2.43959 20.1391 -0.0420933 20.3169 0.00455485 18.6274C0.0465382 16.9425 1.55327 1.68979 1.55327 1.68979C1.55327 1.68979 1.73054 1.15625 2.48624 1.15625C3.24194 1.15625 10.8176 1.42302 10.8176 1.42302C10.8176 1.42302 12.3663 1.68979 12.3243 3.07045C12.2824 4.4511 12.5483 6.71631 10.7756 6.58059C9.00299 6.44954 5.41108 5.24673 4.97259 5.78028C4.97259 5.78028 4.52943 8.05017 4.79532 8.58371H9.4928C9.4928 8.58371 11.0462 8.67263 10.9995 9.96436C10.9576 11.2514 10.5564 13.0299 9.62808 13.0767C8.69511 13.1188 4.84197 12.941 4.84197 12.941C4.84197 12.941 4.26353 15.6976 4.48745 18.4963H4.47812Z" fill="#7FC117"/>
<path d="M13.5607 1.02508C13.5607 1.02508 12.9403 17.0313 13.8686 19.6101C13.8686 19.6101 13.9106 19.7458 15.0628 19.8769C16.215 20.0126 24.1032 20.1015 24.1032 20.1015C24.1032 20.1015 24.1918 16.3667 23.9259 15.9689C23.66 15.5664 22.4192 15.5243 21.5329 15.5243C20.6465 15.5243 17.1013 15.4354 17.1013 15.4354C17.1013 15.4354 16.7468 15.2575 16.7001 14.2794C16.6581 13.3012 16.8354 1.83007 16.8354 1.83007C16.8354 1.83007 16.966 1.11868 15.8138 1.02976C14.6616 0.940832 13.556 1.02976 13.556 1.02976L13.5607 1.02508Z" fill="#7FC117"/>
<path d="M39.9729 1.38051C37.2253 -0.131195 33.1482 -0.309042 30.5779 0.800162C28.0076 1.91405 26.0997 5.8688 26.0997 5.8688C26.0997 5.8688 24.9475 8.04977 25.7452 12.4959C26.5429 16.9421 30.312 20.7237 34.5663 20.7658C38.8207 20.808 43.5181 18.4959 44.8896 12.4491C46.2657 6.40235 42.7205 2.89221 39.9729 1.38051ZM40.6819 14.8501C38.6854 17.251 38.1536 17.5599 33.8573 17.3399C31.1564 16.5818 29.603 14.0076 29.3371 13.0248C29.0712 12.0467 28.8519 8.66756 29.7802 6.75804C30.7132 4.84852 32.5745 3.07005 34.4311 3.07005C36.2877 3.07005 37.7524 2.89221 39.0399 5.51311C39.5251 6.31342 40.1035 5.51311 40.9012 6.71124C41.6989 7.90937 42.6738 12.4445 40.6819 14.8454V14.8501Z" fill="#7FC117"/>
<path d="M82.1616 1.38051C79.414 -0.131195 75.3369 -0.309042 72.7666 0.800162C70.1963 1.91405 68.2931 5.8688 68.2931 5.8688C68.2931 5.8688 67.1408 8.04977 67.9385 12.4959C68.7362 16.9421 72.5007 20.7237 76.755 20.7658C81.0094 20.808 85.7068 18.4959 87.0829 12.4491C88.4544 6.40235 84.9091 2.89221 82.1616 1.38051ZM82.8706 14.8501C80.8741 17.251 80.3423 17.5599 76.046 17.3399C73.3451 16.5818 71.7917 14.0076 71.5258 13.0248C71.2599 12.0467 71.0406 8.66756 71.9689 6.75804C72.9019 4.84852 74.7632 3.07005 76.6244 3.07005C78.4857 3.07005 79.9458 2.89221 81.2333 5.51311C81.7184 6.31342 82.2968 5.51311 83.0945 6.71124C83.8922 7.90937 84.8672 12.4445 82.8706 14.8454V14.8501Z" fill="#7FC117"/>
<path d="M61.9116 7.33831C61.9116 7.33831 62.1355 9.60352 63.3297 9.73924C64.5239 9.87029 65.5455 9.47247 65.5455 9.47247C65.5455 9.47247 65.6341 5.24626 64.6591 3.91241C64.6591 3.91241 63.8195 4.31491 63.4183 3.73456C63.0171 3.15422 60.9833 1.02006 59.3412 0.575438C57.6992 0.13082 53.0484 -0.402721 50.3895 2.66748C47.7305 5.73768 46.0045 12.9826 50.1655 17.6956C54.3312 22.4085 59.873 20.8079 60.9366 20.4522C62.0002 20.0965 65.3402 17.2463 65.4988 14.85C65.5874 13.5162 63.5489 13.8297 63.0638 13.8719C62.5786 13.914 62.4853 14.0076 62.1308 14.719C61.7763 15.4304 60.3582 17.7845 57.522 17.3867C54.6858 16.9842 52.3347 14.4054 52.0268 11.9623C51.7189 9.51928 51.2758 6.40695 52.9598 4.58168C54.6438 2.75641 55.3528 2.53644 56.7709 3.5146C58.189 4.49275 58.3243 4.58168 59.6071 5.11522C60.89 5.64876 61.6923 6.2291 61.9116 7.33831Z" fill="#7FC117"/>
<path d="M90.0077 20.4522L93.9075 20.4054C93.9075 20.4054 92.9745 10.5349 93.2871 10.0482C93.595 9.56143 98.7403 20.2744 99.6219 20.3633C100.508 20.4522 102.99 20.4522 102.99 19.2073C102.99 17.9624 102.635 2.04505 102.328 1.24474C102.015 0.444428 99.5333 0.0887342 99.4913 0.842244C99.4446 1.60043 99.4913 13.1605 99.4913 13.1605C99.4913 13.1605 92.1769 1.8204 90.9827 1.1137C89.7885 0.402307 89.4759 1.86721 89.4293 3.07001C89.3873 4.26814 90.0964 19.7455 90.0077 20.4569V20.4522Z" fill="#7FC117"/>
<path d="M111.587 1.73655C111.587 1.73655 111.895 1.38085 113.005 1.24981C114.111 1.11876 115.664 0.674144 115.706 0.894113C115.748 1.11876 118.897 11.2092 119.34 11.0735C119.783 10.9425 122.885 1.46978 123.594 1.16088C124.303 0.847311 126.389 1.02516 126.519 1.20301C126.655 1.38085 121.248 19.0766 119.387 19.6523C117.525 20.2326 113.225 4.04856 111.587 1.73655Z" fill="#7FC117"/>
<path d="M129.491 0.17802C129.491 0.17802 127.895 0.220142 127.895 1.64292C127.895 3.0657 127.765 12.4448 127.452 14.4947C127.144 16.54 127.494 19.7833 128.604 19.8722C129.715 19.9612 138.489 19.4276 139.152 19.6476C139.819 19.8722 140.127 19.5166 140.215 18.4916C140.304 17.4713 140.523 16.0017 139.282 15.735C138.041 15.4682 131.259 16.1796 131.305 15.5992C131.352 15.0236 131.04 12.7537 132.28 12.6226C133.521 12.4869 139.413 13.7318 139.637 12.178C139.861 10.6195 139.814 8.84105 137.645 8.88785C135.476 8.92997 132.551 8.92997 132.551 8.92997C132.551 8.92997 131.842 5.6866 132.64 5.46195C133.437 5.2373 139.287 6.03761 139.464 5.2841C139.641 4.53059 139.641 0.837926 138.932 0.571156C138.223 0.304385 130.246 0.17334 129.495 0.17334L129.491 0.17802Z" fill="#7FC117"/>
<path d="M154 18.8098C153.599 17.2981 149.703 11.7849 150.011 10.6757C150.319 9.56178 153.333 11.5181 153.557 6.71623C153.781 1.91436 148.729 0.491578 147.31 0.266929C145.892 0.0469605 144.031 -0.135567 143.411 0.131204C143.411 0.131204 142.613 0.178006 142.394 2.08752C142.17 3.99704 142.482 16.1374 142.436 17.1577C142.394 18.178 142.212 19.6476 143.588 19.8254C144.964 20.0033 145.496 19.6476 145.496 17.6491C145.496 15.6507 144.922 11.4666 145.584 11.1577C146.251 10.8442 147.268 10.3574 147.935 12.3137C148.603 14.2701 150.105 19.9612 151.257 19.8722C152.409 19.7833 154.401 20.3169 154.004 18.8052L154 18.8098ZM145.71 7.87223C144.824 7.73651 145.486 3.15929 145.486 3.15929C147.921 2.22325 150.049 4.40421 150.142 6.22949C150.231 8.05476 146.597 8.00796 145.71 7.87691V7.87223Z" fill="#7FC117"/>
<path d="M155.814 1.24514C155.814 1.24514 156.393 4.22642 156.659 4.80208C157.279 5.02673 161.043 4.62423 161.267 4.75996C161.491 4.891 160.073 19.5213 160.605 19.788C161.137 20.0548 164.948 20.6305 164.901 19.1656C164.855 17.7007 163.572 5.38242 163.926 4.98461C164.281 4.58211 169.953 5.65387 169.995 4.94249C170.037 4.2311 169.771 1.29662 169.156 1.11877C168.535 0.940926 156.085 1.07197 155.814 1.24982V1.24514Z" fill="#7FC117"/>
</g>
<defs>
<clipPath id="clip0_1275_853">
<rect width="170" height="21" fill="white"/>
</clipPath>
</defs>
</svg>
